<?xml version="1.0" standalone="no"?>
<!DOCTYPE svg PUBLIC "-//W3C//DTD SVG 1.1//EN" "http://www.w3.org/Graphics/SVG/1.1/DTD/svg11.dtd">

<svg style="stroke-linejoin:round; stroke:black; stroke-width:0.5pt; text-anchor:middle; fill:none" xmlns="http://www.w3.org/2000/svg" font-family="Helvetica, Arial, FreeSans, Sans, sans, sans-serif" height="400px" width="400px" version="1.1" xmlns:xlink="http://www.w3.org/1999/xlink" viewBox="0 0 100 100">

<g>

<g>

<path stroke-width="0.25pt" d="" />

<path stroke-width="0.25pt" d="M20.9881 33.25L18.3901 31.75M76.5773 29.6065L78.9574 27.7802M70.3935 76.5773L72.2198 78.9574M41.3296 82.3585L40.5531 85.2563M70.3935 23.4226L72.2198 21.0426M16.7866 45.6274L13.8123 45.2357M76.5774 70.3935L78.9574 72.2198M29.6065 76.5774L27.7802 78.9574M66.75 79.0118L68.25 81.61M23.4227 70.3935L21.0426 72.2198M45.6273 16.7866L45.2358 13.8123M29.6065 23.4227L27.7802 21.0426M82.3585 41.3295L85.2563 40.5532M33.25 79.0119L31.75 81.6099M80.95 62.8199L83.7216 63.968M62.8199 80.9499L63.9679 83.7216M19.0501 62.8199L16.2784 63.9679M83.2134 45.6273L86.1877 45.2358M16.7866 54.3727L13.8123 54.7642M20.9882 66.75L18.39 68.25M82.3585 58.6704L85.2563 59.4469M58.6705 82.3585L59.4468 85.2563M19.05 37.1801L16.2784 36.032M23.4226 29.6065L21.0426 27.7802M16.5 50L13.5 50M58.6704 17.6415L59.4469 14.7437M54.3727 83.2134L54.7642 86.1877M41.3295 17.6415L40.5532 14.7437M62.8199 19.05L63.968 16.2784M66.75 20.9881L68.25 18.3901M79.0119 66.75L81.6099 68.25M45.6274 83.2134L45.2357 86.1877M54.3726 16.7866L54.7643 13.8123M37.1801 19.0501L36.0321 16.2784M26.3119 26.312L24.1906 24.1906M17.6415 41.3296L14.7437 40.5531M83.5 50L86.5 50M80.9499 37.1801L83.7216 36.0321M83.2134 54.3726L86.1877 54.7643M73.688 26.3119L75.8094 24.1906M33.25 20.9882L31.75 18.39M50 83.5L50 86.5M26.312 73.6881L24.1906 75.8094M79.0118 33.25L81.61 31.75M37.1801 80.95L36.032 83.7216M73.6881 73.688L75.8094 75.8094M17.6415 58.6705L14.7437 59.4468" />

<path stroke-width="0.25pt" d="M50 15L52.8352 15.115L57.2228 15.7534L60.8234 16.7155L63.7766 17.8254L67.0709 19.4454L69.4032 20.8707L72.0494 22.8186L73.5793 24.1346L75.777 26.3242L78.1763 29.2372L79.8038 31.6496L81.582 34.9144L83.0079 38.3604L84.0297 41.8159L84.8105 46.3624L84.9984 49.6643L84.9656 51.5517L84.6018 55.2644L84.0596 58.0589L83.0959 61.387L81.7733 64.6785L80.1948 67.6996L77.8914 71.144L75.639 73.8252L73.35 76.0725L70.9604 78.0296L68.1187 79.9452L64.7839 81.7244L61.1685 83.1702L57.2077 84.2498L53.5321 84.8213L50.2243 84.9993L46.6233 84.8367L42.7291 84.2364L40.1315 83.5799L36.6478 82.3531L33.7082 80.9771L31.1108 79.4652L28.7015 77.7736L26.0418 75.5148L23.9244 73.3466L21.945 70.9265L19.7363 67.5815L18.0669 64.3274L16.9356 61.4781L15.8015 57.4474L15.2645 54.2945L15.0298 51.445L15.0338 48.4617L15.3632 44.971L15.8861 42.1745L16.5229 39.788L17.9271 35.9882L18.6793 34.3791L20.883 30.5783L22.9808 27.7522L25.0931 25.4104L27.5932 23.1126L29.5643 21.5855L32.8578 19.4853L35.9585 17.9401L39.0629 16.7528L42.6582 15.7787L45.8193 15.2506L48.2507 15.0437" />

</g>

<g>

<path stroke-width="0.25pt" d="" />

<path stroke-width="0.25pt" d="M68 18.8231L69.5 16.225M81.1769 32L83.775 30.5M86 50L89 50M32 81.1769L30.5 83.775M50 86L50 89M32 18.8231L30.5 16.225M18.8231 68L16.225 69.5M68 81.1769L69.5 83.775M14 50L11 50M81.1769 68L83.775 69.5M18.8231 32L16.225 30.5" />

<defs>

<marker refY="3.6" refX="1.5" markerUnits="strokeWidth" viewBox="0 0 10.5 7.2" stroke="none" id="myfinalarrow" markerWidth="10.5" fill="black" orient="auto" markerHeight="7.2">

<path d="M 1.5 3.6 L 0 0 L 10.5 3.6 L 0 7.2 L 1.5 3.6 Z" />

</marker>

</defs>

<path stroke-width="0.25pt" marker-end="url(#myfinalarrow)" d="M50 12.5L53.5305 12.6666L55.6148 12.9227L58.4283 13.4594L62.3196 14.5814L65.1051 15.6768L68.5933 17.4341L71.3762 19.1892L73.7234 20.9578L76.1781 23.1494L78.0235 25.0815L79.8876 27.3509L82.1534 30.7022L84.2791 34.7951L85.399 37.6241L86.5871 41.776L87.1796 45.1083L87.4943 49.3445L87.3983 52.7596L86.9676 56.2963L85.9323 60.7293L85.1881 62.9633L83.4724 66.907L82.1181 69.3565L80.7756 71.427L78.313 74.5891L75.3282 77.6538L73.2972 79.3852L69.6514 81.9386L67.094 83.3773L63.5752 84.9566L60.3919 86.0313L56.3066 86.9659L54.213 87.2626L50.7538 87.4924L47.2212 87.3969L43.5831 86.9469L39.8042 86.0873L35.7331 84.6801L33.4085 83.6299L30.832 82.231L27.6231 80.092L24.8486 77.8147L22.4049 75.3921L20.0313 72.5416L17.4642 68.646L15.9989 65.817L14.3378 61.5955L13.3525 57.9503L12.736 54.2009L12.5087 50.8058L12.5902 47.4008L12.8089 45.1966L13.2574 42.5012L13.9761 39.5822L14.9314 36.7168L17.2265 31.775L18.7546 29.2642L20.7015 26.5938L22.185 24.8489L23.6216 23.3461L26.6047 20.6928L29.3051 18.7275L32.0976 17.0492L35.5129 15.4114L38.5331 14.2962L41.594 13.4543L44.8045 12.8616L47.0032 12.6199" />

</g>

<text y="8.75" x="50.0" stroke="none" font-size="5" fill="black">Midnight</text>

<text y="95.0" x="50.0" stroke="none" font-size="5" fill="black">Noon</text>

<text y="50.0" x="95.0" stroke="none" font-size="5" fill="black">6</text>

<text y="50.0" x="62.5" stroke="none" font-size="5" fill="black">AM</text>

<text y="50.0" x="37.5" stroke="none" font-size="5" fill="black">PM</text>

<text y="29.851264687" x="18.372820782" stroke="none" font-size="5" fill="black">NOW!</text>

<path d="M50 50L18.3728 29.8513L50 12.5L50 50Z" />

</g>

</svg>

