<?xml version="1.0" standalone="no"?>
<!DOCTYPE svg PUBLIC "-//W3C//DTD SVG 1.1//EN" "http://www.w3.org/Graphics/SVG/1.1/DTD/svg11.dtd">

<svg style="stroke-linejoin:round; stroke:black; stroke-width:0.5pt; text-anchor:middle; fill:none" xmlns="http://www.w3.org/2000/svg" font-family="Helvetica, Arial, FreeSans, Sans, sans, sans-serif" height="400px" width="400px" version="1.1" xmlns:xlink="http://www.w3.org/1999/xlink" viewBox="0 0 100 100">

<g>

<g>

<path stroke-width="0.25pt" d="" />

<path stroke-width="0.25pt" d="M21.0964 33.3125L18.4983 31.8125M76.4781 29.6826L78.8583 27.8563M70.3174 76.4781L72.1437 78.8583M41.362 82.2378L40.5854 85.1355M70.3174 23.5218L72.1437 21.1418M16.9105 45.6437L13.9362 45.2521M76.4782 70.3174L78.8582 72.1437M29.6826 76.4782L27.8563 78.8582M66.6875 78.9036L68.1875 81.5017M23.5219 70.3174L21.1417 72.1437M45.6436 16.9105L45.2522 13.9362M29.6826 23.5219L27.8563 21.1417M82.2378 41.3619L85.1356 40.5855M33.3125 78.9036L31.8125 81.5017M80.8345 62.772L83.6061 63.9202M62.7721 80.8345L63.9201 83.6061M19.1655 62.7721L16.3939 63.9201M83.0895 45.6436L86.0638 45.2522M16.9105 54.3564L13.9362 54.7478M21.0964 66.6875L18.4983 68.1875M82.2378 58.638L85.1355 59.4146M58.6381 82.2378L59.4145 85.1356M19.1655 37.228L16.3939 36.0798M23.5218 29.6826L21.1418 27.8563M16.625 50L13.625 50M58.638 17.7622L59.4146 14.8645M54.3564 83.0895L54.7478 86.0638M41.3619 17.7622L40.5855 14.8644M62.772 19.1655L63.9202 16.3939M66.6875 21.0964L68.1875 18.4983M78.9036 66.6875L81.5017 68.1875M45.6437 83.0895L45.2521 86.0638M54.3563 16.9105L54.7479 13.9362M37.2279 19.1655L36.0799 16.3939M26.4003 26.4003L24.279 24.279M17.7622 41.362L14.8645 40.5854M83.375 50L86.375 50M80.8345 37.2279L83.6061 36.0799M83.0895 54.3563L86.0638 54.7479M73.5997 26.4003L75.721 24.279M33.3125 21.0964L31.8125 18.4983M50 83.375L50 86.375M26.4003 73.5997L24.279 75.721M78.9036 33.3125L81.5017 31.8125M37.228 80.8345L36.0798 83.6061M73.5997 73.5997L75.721 75.721M17.7622 58.6381L14.8644 59.4145" />

<path stroke-width="0.25pt" d="M50 15.125L53.9191 15.3459L57.3126 15.9003L60.268 16.6708L63.3535 17.7828L67.174 19.6467L71.5381 22.5705L74.4809 25.1615L75.7729 26.5048L77.9313 29.1168L79.4313 31.2901L81.4622 34.9536L83.16 39.1981L84.1286 42.8234L84.6847 46.3618L84.8749 49.9342L84.5994 54.3757L84.0135 57.7036L83.382 60.0949L82.3968 62.9116L81.373 65.2315L79.6994 68.2815L78.1027 70.652L76.1538 73.0704L74.0609 75.2455L72.2216 76.8787L69.5385 78.888L67.3027 80.2801L64.0881 81.9029L60.1056 83.3788L56.8877 84.1881L52.9512 84.7499L49.5866 84.8725L46.0799 84.654L41.8104 83.8998L38.7092 82.9967L35.1996 81.5787L32.1202 79.9429L29.053 77.8835L26.2342 75.5236L24.6036 73.9016L22.5893 71.562L19.934 67.672L18.8593 65.7011L17.4438 62.5043L16.6347 60.15L15.996 57.7456L15.4373 54.6568L15.1594 51.5479L15.1735 48.1612L15.631 44.0807L16.3904 40.691L17.1675 38.2402L18.649 34.7231L20.1077 32.0356L22.1724 28.9788L23.9454 26.8176L26.5462 24.1894L28.9119 22.2231L31.9483 20.1604L34.8221 18.601L37.9351 17.2784L41.4841 16.1807L44.7157 15.5277L48.257 15.1686" />

</g>

<g>

<path stroke-width="0.25pt" d="" />

<path stroke-width="0.25pt" d="M68 18.8231L69.5 16.225M81.1769 32L83.775 30.5M86 50L89 50M32 81.1769L30.5 83.775M50 86L50 89M32 18.8231L30.5 16.225M18.8231 68L16.225 69.5M68 81.1769L69.5 83.775M14 50L11 50M81.1769 68L83.775 69.5M18.8231 32L16.225 30.5" />

<defs>

<marker refY="3.6" refX="1.5" markerUnits="strokeWidth" viewBox="0 0 10.5 7.2" stroke="none" id="myfinalarrow" markerWidth="10.5" fill="black" orient="auto" markerHeight="7.2">

<path d="M 1.5 3.6 L 0 0 L 10.5 3.6 L 0 7.2 L 1.5 3.6 Z" />

</marker>

</defs>

<path stroke-width="0.25pt" marker-end="url(#myfinalarrow)" d="M50 12.5L53.5862 12.6719L56.3023 13.0334L59.2247 13.6523L61.6724 14.3629L65.0511 15.653L68.8576 17.5864L71.7968 19.4853L74.0111 21.1952L76.9642 23.9389L79.5785 26.9487L81.6873 29.9459L82.8515 31.916L84.683 35.7404L85.7215 38.5885L86.719 42.3865L87.3035 46.1662L87.4999 50.0805L87.2581 54.2528L86.7003 57.7033L85.6846 61.5265L84.9331 63.6357L83.1227 67.5824L81.5371 70.2895L79.4946 73.1586L77.8028 75.1646L75.7092 77.2999L73.0469 79.5819L70.1519 81.6252L66.2512 83.7957L63.1592 85.1153L58.3523 86.558L55.49 87.096L52.9716 87.3821L49.3944 87.4951L45.03 87.1692L42.1725 86.674L39.2752 85.9337L35.7746 84.6971L32.3951 83.1107L28.7554 80.9017L25.2252 78.1507L22.5824 75.5837L20.2734 72.86L18.7374 70.7099L17.1559 68.0973L15.4995 64.6957L14.3544 61.6465L13.2364 57.3951L12.6488 53.3376L12.5021 50.3968L12.6384 46.7815L13.0332 43.6986L14.0184 39.4371L15.5091 35.2817L16.8392 32.4896L18.7307 29.3003L21.4452 25.6921L23.0558 23.9182L25.4586 21.6457L27.7828 19.7899L30.7518 17.8168L34.6139 15.8018L38.8707 14.1895L43.68 13.0364L47.0032 12.6199" />

</g>

<text y="50.0" x="62.5" stroke="none" font-size="5" fill="black">AM</text>

<text y="50.0" x="37.5" stroke="none" font-size="5" fill="black">PM</text>

<text y="8.75" x="50.0" stroke="none" font-size="7" fill="black">Midnight</text>

<text y="95.0" x="50.0" stroke="none" font-size="7" fill="black">Noon</text>

<text y="50.0" x="95.0" stroke="none" font-size="7" fill="black">6</text>

<text y="50.0" x="5.0" stroke="none" font-size="7" fill="black">18</text>

<text y="18.75" x="81.25" stroke="none" font-size="7" fill="black">3</text>

<text y="81.25" x="18.75" stroke="none" font-size="5" fill="black">15</text>

<text y="81.25" x="81.25" stroke="none" font-size="5" fill="black">9</text>

<text y="18.75" x="18.75" stroke="none" font-size="5" fill="black">21</text>

<path stroke="rgb(190,190,190)" stroke-width="0.5" d="M50 50L50 87.5" />

<g>

<path fill="#00EE76" fill-opacity="0.8" stroke="rgb(163,163,163)" stroke-width="0.1" d="M50 50L40.2943 13.7778L41.0868 13.5747L41.8835 13.3889L42.6841 13.2206L43.4882 13.0697L44.2954 12.9364L45.1053 12.8208L45.9175 12.7229L46.7317 12.6427L47.5474 12.5803L48.3643 12.5357L49.1819 12.5089L50 12.5L50.8181 12.5089L51.6357 12.5357L52.4526 12.5803L53.2683 12.6427L54.0825 12.7229L54.8947 12.8208L55.7046 12.9364L56.5118 13.0697L57.3159 13.2206L58.1165 13.3889L58.9132 13.5747L59.7057 13.7778L60.4936 13.9981L61.2765 14.2356L62.054 14.4901L62.8258 14.7615L63.5914 15.0497L64.3506 15.3545L65.103 15.6758L65.8482 16.0135L66.5858 16.3673L67.3156 16.7371L68.0371 17.1227L68.75 17.524L50 50Z" />

</g>

<g>

<path fill="#00EE76" fill-opacity="0.8" stroke="rgb(163,163,163)" stroke-width="0.1" d="M50 50L86.2222 59.7057L86.0019 60.4936L85.7644 61.2765L85.5099 62.054L85.2385 62.8258L84.9503 63.5914L84.6455 64.3506L50 50Z" />

</g>

<g>

<path fill="#00EE76" fill-opacity="0.8" stroke="rgb(163,163,163)" stroke-width="0.1" d="M50 50L50 87.5L49.1819 87.4911L48.3643 87.4643L47.5474 87.4197L46.7317 87.3573L45.9175 87.2771L45.1053 87.1792L50 50Z" />

</g>

<g>

<path fill="#00EE76" fill-opacity="0.8" stroke="rgb(163,163,163)" stroke-width="0.1" d="M50 50L13.7778 59.7057L13.5747 58.9132L13.3889 58.1165L13.2206 57.3159L13.0697 56.5118L12.9364 55.7046L12.8208 54.8947L50 50Z" />

</g>

</g>

</svg>

