<?xml version="1.0" standalone="no"?>
<!DOCTYPE svg PUBLIC "-//W3C//DTD SVG 1.1//EN" "http://www.w3.org/Graphics/SVG/1.1/DTD/svg11.dtd">

<svg style="stroke-linejoin:round; stroke:black; stroke-width:0.5pt; text-anchor:middle; fill:none" xmlns="http://www.w3.org/2000/svg" font-family="Helvetica, Arial, FreeSans, Sans, sans, sans-serif" height="400px" width="400px" version="1.1" xmlns:xlink="http://www.w3.org/1999/xlink" viewBox="0 0 100 100">

<g>

<g>

<path stroke-width="0.25pt" d="" />

<path stroke-width="0.25pt" d="M20.9881 33.25L18.3901 31.75M76.5773 29.6065L78.9574 27.7802M70.3935 76.5773L72.2198 78.9574M41.3296 82.3585L40.5531 85.2563M70.3935 23.4226L72.2198 21.0426M16.7866 45.6274L13.8123 45.2357M76.5774 70.3935L78.9574 72.2198M29.6065 76.5774L27.7802 78.9574M66.75 79.0118L68.25 81.61M23.4227 70.3935L21.0426 72.2198M45.6273 16.7866L45.2358 13.8123M29.6065 23.4227L27.7802 21.0426M82.3585 41.3295L85.2563 40.5532M33.25 79.0119L31.75 81.6099M80.95 62.8199L83.7216 63.968M62.8199 80.9499L63.9679 83.7216M19.0501 62.8199L16.2784 63.9679M83.2134 45.6273L86.1877 45.2358M16.7866 54.3727L13.8123 54.7642M20.9882 66.75L18.39 68.25M82.3585 58.6704L85.2563 59.4469M58.6705 82.3585L59.4468 85.2563M19.05 37.1801L16.2784 36.032M23.4226 29.6065L21.0426 27.7802M16.5 50L13.5 50M58.6704 17.6415L59.4469 14.7437M54.3727 83.2134L54.7642 86.1877M41.3295 17.6415L40.5532 14.7437M62.8199 19.05L63.968 16.2784M66.75 20.9881L68.25 18.3901M79.0119 66.75L81.6099 68.25M45.6274 83.2134L45.2357 86.1877M54.3726 16.7866L54.7643 13.8123M37.1801 19.0501L36.0321 16.2784M26.3119 26.312L24.1906 24.1906M17.6415 41.3296L14.7437 40.5531M83.5 50L86.5 50M80.9499 37.1801L83.7216 36.0321M83.2134 54.3726L86.1877 54.7643M73.688 26.3119L75.8094 24.1906M33.25 20.9882L31.75 18.39M50 83.5L50 86.5M26.312 73.6881L24.1906 75.8094M79.0118 33.25L81.61 31.75M37.1801 80.95L36.032 83.7216M73.6881 73.688L75.8094 75.8094M17.6415 58.6705L14.7437 59.4468" />

<path stroke-width="0.25pt" d="M50 15L54.2756 15.2621L57.3426 15.7789L61.3539 16.8928L64.5295 18.1583L66.4644 19.1144L69.534 20.9583L71.7848 22.6061L74.2974 24.808L76.232 26.8293L78.0231 29.0309L80.0337 32.0284L81.5573 34.8627L82.8205 37.8422L83.7515 40.7351L84.2174 42.6399L84.8378 46.6345L84.9977 49.6017L84.8201 53.5441L84.4679 56.0796L83.5371 60.013L82.1143 63.9167L79.9858 68.0514L78.3561 70.5166L76.4596 72.9105L73.8449 75.6207L71.415 77.6839L69.0294 79.3749L65.1471 81.5526L61.4719 83.0665L57.8883 84.0995L53.5234 84.8222L50.1609 84.9996L47.6056 84.918L45.6698 84.7311L42.3085 84.1444L38.1647 82.9382L34.1892 81.2253L31.7713 79.8783L28.5311 77.6421L26.1977 75.6603L24.1532 73.5997L22.1012 71.1342L20.4453 68.7488L18.9691 66.189L17.336 62.5724L16.3102 59.4868L15.5413 56.1315L15.0785 52.3423L15.0231 48.7298L15.4145 44.6296L16.006 41.6689L17.0232 38.2726L18.3992 34.9538L20.1883 31.6625L21.9331 29.0895L24.5547 25.968L27.0599 23.5661L28.9184 22.0614L32.0001 19.9833L35.4719 18.1577L38.5842 16.9141L42.5271 15.8071L46.9656 15.1318L48.2507 15.0437" />

</g>

<g>

<path stroke-width="0.25pt" d="" />

<path stroke-width="0.25pt" d="M68 18.8231L69.5 16.225M81.1769 32L83.775 30.5M86 50L89 50M32 81.1769L30.5 83.775M50 86L50 89M32 18.8231L30.5 16.225M18.8231 68L16.225 69.5M68 81.1769L69.5 83.775M14 50L11 50M81.1769 68L83.775 69.5M18.8231 32L16.225 30.5" />

<defs>

<marker refY="3.6" refX="1.5" markerUnits="strokeWidth" viewBox="0 0 10.5 7.2" stroke="none" id="myfinalarrow" markerWidth="10.5" fill="black" orient="auto" markerHeight="7.2">

<path d="M 1.5 3.6 L 0 0 L 10.5 3.6 L 0 7.2 L 1.5 3.6 Z" />

</marker>

</defs>

<path stroke-width="0.25pt" marker-end="url(#myfinalarrow)" d="M50 12.5L54.1168 12.7267L58.2109 13.41L61.1688 14.2019L64.2963 15.3321L67.9484 17.0742L70.6326 18.6863L73.6298 20.8816L76.2966 23.2654L78.3602 25.4653L79.9484 27.4314L82.4518 31.2082L84.3241 34.8969L85.5426 38.0428L86.1663 40.0878L86.9773 43.7604L87.43 47.709L87.4227 52.4069L87.0038 56.08L86.1661 59.9128L84.6511 64.3371L83.4177 67.0149L81.8135 69.8532L79.942 72.5772L77.6526 75.3295L75.1441 77.8213L72.3881 80.0836L68.4286 82.6594L65.0497 84.3476L61.2133 85.7842L58.6439 86.4902L55.0368 87.1602L50.961 87.4877L47.4853 87.4156L44.0491 87.0248L40.2402 86.2077L35.8066 84.7102L32.3394 83.081L28.4508 80.6901L25.4977 78.3882L22.9794 76.0026L20.4386 73.0732L18.7235 70.6889L16.9048 67.6339L15.6437 65.0299L14.3597 61.6628L13.542 58.7785L13.1949 57.1857L12.6581 53.44L12.5028 49.5422L12.6916 46.2138L13.3959 41.8521L14.4013 38.211L15.1814 36.0747L15.8903 34.4187L18.309 29.9518L20.4263 26.9425L22.6844 24.3074L24.3425 22.6514L27.7291 19.8296L30.4854 17.9777L33.5702 16.2908L37.7428 14.5597L42.196 13.321L45.683 12.7493L47.0032 12.6199" />

</g>

<text y="8.75" x="50.0" stroke="none" font-size="5" fill="black">Midnight</text>

<text y="95.0" x="50.0" stroke="none" font-size="5" fill="black">Noon</text>

<text y="50.0" x="95.0" stroke="none" font-size="5" fill="black">6</text>

<text y="50.0" x="62.5" stroke="none" font-size="5" fill="black">AM</text>

<text y="50.0" x="37.5" stroke="none" font-size="5" fill="black">PM</text>

<text y="29.851264687" x="18.372820782" stroke="none" font-size="5" fill="black">NOW!</text>

<path d="M50 50L18.3728 29.8513L50 12.5L50 50Z" />

</g>

</svg>

