<?xml version="1.0" standalone="no"?>
<!DOCTYPE svg PUBLIC "-//W3C//DTD SVG 1.1//EN" "http://www.w3.org/Graphics/SVG/1.1/DTD/svg11.dtd">

<svg style="stroke-linejoin:round; stroke:black; stroke-width:0.5pt; text-anchor:middle; fill:none" xmlns="http://www.w3.org/2000/svg" font-family="Helvetica, Arial, FreeSans, Sans, sans, sans-serif" height="400px" width="400px" version="1.1" xmlns:xlink="http://www.w3.org/1999/xlink" viewBox="0 0 100 100">

<g>

<g>

<path stroke-width="0.25pt" d="" />

<path stroke-width="0.25pt" d="M21.0964 33.3125L18.4983 31.8125M76.4781 29.6826L78.8583 27.8563M70.3174 76.4781L72.1437 78.8583M41.362 82.2378L40.5854 85.1355M70.3174 23.5218L72.1437 21.1418M16.9105 45.6437L13.9362 45.2521M76.4782 70.3174L78.8582 72.1437M29.6826 76.4782L27.8563 78.8582M66.6875 78.9036L68.1875 81.5017M23.5219 70.3174L21.1417 72.1437M45.6436 16.9105L45.2522 13.9362M29.6826 23.5219L27.8563 21.1417M82.2378 41.3619L85.1356 40.5855M33.3125 78.9036L31.8125 81.5017M80.8345 62.772L83.6061 63.9202M62.7721 80.8345L63.9201 83.6061M19.1655 62.7721L16.3939 63.9201M83.0895 45.6436L86.0638 45.2522M16.9105 54.3564L13.9362 54.7478M21.0964 66.6875L18.4983 68.1875M82.2378 58.638L85.1355 59.4146M58.6381 82.2378L59.4145 85.1356M19.1655 37.228L16.3939 36.0798M23.5218 29.6826L21.1418 27.8563M16.625 50L13.625 50M58.638 17.7622L59.4146 14.8645M54.3564 83.0895L54.7478 86.0638M41.3619 17.7622L40.5855 14.8644M62.772 19.1655L63.9202 16.3939M66.6875 21.0964L68.1875 18.4983M78.9036 66.6875L81.5017 68.1875M45.6437 83.0895L45.2521 86.0638M54.3563 16.9105L54.7479 13.9362M37.2279 19.1655L36.0799 16.3939M26.4003 26.4003L24.279 24.279M17.7622 41.362L14.8645 40.5854M83.375 50L86.375 50M80.8345 37.2279L83.6061 36.0799M83.0895 54.3563L86.0638 54.7479M73.5997 26.4003L75.721 24.279M33.3125 21.0964L31.8125 18.4983M50 83.375L50 86.375M26.4003 73.5997L24.279 75.721M78.9036 33.3125L81.5017 31.8125M37.228 80.8345L36.0798 83.6061M73.5997 73.5997L75.721 75.721M17.7622 58.6381L14.8644 59.4145" />

<path stroke-width="0.25pt" d="M50 15.125L53.1715 15.2695L58.1055 16.08L62.9616 17.6231L66.4769 19.2628L69.5555 21.1236L72.5611 23.4056L75.0159 25.7005L76.9105 27.8169L78.5979 30.0394L80.35 32.8203L82.2325 36.6833L83.6604 40.8763L84.4222 44.3982L84.8124 47.9115L84.8722 49.5595L84.6765 53.7155L84.0307 57.6272L83.1583 60.8071L81.5709 64.817L80.0214 67.7477L78.5551 70.0218L76.1381 73.0882L74.1427 75.1673L71.6425 77.3472L68.6332 79.48L65.9838 80.9965L62.9861 82.3671L59.1207 83.6612L54.2561 84.6143L51.4628 84.8443L47.6112 84.7931L44.8263 84.4891L41.3269 83.7793L39.4125 83.2291L35.9682 81.9276L32.8624 80.3738L30.7147 79.0576L28.5318 77.4842L25.7921 75.1046L23.2079 72.3259L21.8769 70.6241L20.3266 68.3236L19.2775 66.5044L17.4656 62.5609L16.4378 59.4786L15.6415 55.9801L15.2062 52.3781L15.1386 49.0272L15.2141 47.5084L15.6849 43.7757L16.6115 39.9265L17.8568 36.4693L19.6156 32.8811L21.9866 29.2271L23.955 26.8068L26.5564 24.1802L29.1567 22.0389L32.1601 20.0333L35.1134 18.4619L38.2407 17.1673L41.9441 16.0682L45.8424 15.3737L48.257 15.1686" />

</g>

<g>

<path stroke-width="0.25pt" d="" />

<path stroke-width="0.25pt" d="M68 18.8231L69.5 16.225M81.1769 32L83.775 30.5M86 50L89 50M32 81.1769L30.5 83.775M50 86L50 89M32 18.8231L30.5 16.225M18.8231 68L16.225 69.5M68 81.1769L69.5 83.775M14 50L11 50M81.1769 68L83.775 69.5M18.8231 32L16.225 30.5" />

<defs>

<marker refY="3.6" refX="1.5" markerUnits="strokeWidth" viewBox="0 0 10.5 7.2" stroke="none" id="myfinalarrow" markerWidth="10.5" fill="black" orient="auto" markerHeight="7.2">

<path d="M 1.5 3.6 L 0 0 L 10.5 3.6 L 0 7.2 L 1.5 3.6 Z" />

</marker>

</defs>

<path stroke-width="0.25pt" marker-end="url(#myfinalarrow)" d="M50 12.5L54.0039 12.7144L58.8515 13.5596L63.2088 14.9033L67.1352 16.6438L70.4244 18.5502L73.9873 21.1754L77.0142 23.9907L78.4839 25.609L81.145 29.1137L82.9586 32.112L84.623 35.5951L85.6386 38.3322L86.5217 41.4902L87.1276 44.7283L87.42 47.5524L87.4845 51.0767L87.123 55.3039L86.3004 59.409L84.6548 64.3281L82.5497 68.6218L81.0411 71.0404L79.4433 73.2237L77.6396 75.3437L74.8078 78.1216L71.8876 80.4497L69.0888 82.2779L66.3126 83.7661L63.8288 84.8571L60.2558 86.0703L56.96 86.8485L53.1407 87.3682L48.5474 87.4719L44.6509 87.1165L42.1356 86.6661L38.0131 85.5326L34.2544 84.0342L30.4555 82.0041L28.3298 80.6048L26.6247 79.3231L24.5262 77.5197L21.8842 74.8143L19.4918 71.806L18.2531 69.9596L16.5655 66.9819L15.0583 63.6136L13.9191 60.2185L13.0379 56.329L12.6825 53.6953L12.5058 49.338L12.6783 46.347L13.3501 42.0606L14.355 38.3518L15.7082 34.8236L16.9072 32.3616L17.933 30.5589L19.6258 28.0078L21.7688 25.317L23.7472 23.2223L26.4079 20.8511L29.7283 18.4515L32.6223 16.7695L37.0616 14.8027L41.8956 13.3862L44.925 12.845L47.0032 12.6199" />

</g>

<text y="50.0" x="62.5" stroke="none" font-size="5" fill="black">AM</text>

<text y="50.0" x="37.5" stroke="none" font-size="5" fill="black">PM</text>

<text y="8.75" x="50.0" stroke="none" font-size="7" fill="black">Minuit</text>

<text y="95.0" x="50.0" stroke="none" font-size="7" fill="black">Midi</text>

<text y="50.0" x="95.0" stroke="none" font-size="7" fill="black">6</text>

<text y="50.0" x="5.0" stroke="none" font-size="7" fill="black">18</text>

<text y="18.75" x="81.25" stroke="none" font-size="7" fill="black">3</text>

<text y="81.25" x="18.75" stroke="none" font-size="5" fill="black">15</text>

<text y="81.25" x="81.25" stroke="none" font-size="5" fill="black">9</text>

<text y="18.75" x="18.75" stroke="none" font-size="5" fill="black">21</text>

<path stroke="rgb(190,190,190)" stroke-width="0.5" d="M50 50L50 87.5" />

<g>

<path fill="#00EE76" fill-opacity="0.8" stroke="rgb(163,163,163)" stroke-width="0.1" d="M50 50L40.2943 13.7778L41.0868 13.5747L41.8835 13.3889L42.6841 13.2206L43.4882 13.0697L44.2954 12.9364L45.1053 12.8208L45.9175 12.7229L46.7317 12.6427L47.5474 12.5803L48.3643 12.5357L49.1819 12.5089L50 12.5L50.8181 12.5089L51.6357 12.5357L52.4526 12.5803L53.2683 12.6427L54.0825 12.7229L54.8947 12.8208L55.7046 12.9364L56.5118 13.0697L57.3159 13.2206L58.1165 13.3889L58.9132 13.5747L59.7057 13.7778L60.4936 13.9981L61.2765 14.2356L62.054 14.4901L62.8258 14.7615L63.5914 15.0497L64.3506 15.3545L65.103 15.6758L65.8482 16.0135L66.5858 16.3673L67.3156 16.7371L68.0371 17.1227L68.75 17.524L50 50Z" />

</g>

<g>

<path fill="#00EE76" fill-opacity="0.8" stroke="rgb(163,163,163)" stroke-width="0.1" d="M50 50L86.2222 59.7057L86.0019 60.4936L85.7644 61.2765L85.5099 62.054L85.2385 62.8258L84.9503 63.5914L84.6455 64.3506L50 50Z" />

</g>

<g>

<path fill="#00EE76" fill-opacity="0.8" stroke="rgb(163,163,163)" stroke-width="0.1" d="M50 50L50 87.5L49.1819 87.4911L48.3643 87.4643L47.5474 87.4197L46.7317 87.3573L45.9175 87.2771L45.1053 87.1792L50 50Z" />

</g>

<g>

<path fill="#00EE76" fill-opacity="0.8" stroke="rgb(163,163,163)" stroke-width="0.1" d="M50 50L13.7778 59.7057L13.5747 58.9132L13.3889 58.1165L13.2206 57.3159L13.0697 56.5118L12.9364 55.7046L12.8208 54.8947L50 50Z" />

</g>

</g>

</svg>

