<?xml version="1.0" standalone="no"?>
<!DOCTYPE svg PUBLIC "-//W3C//DTD SVG 1.1//EN" "http://www.w3.org/Graphics/SVG/1.1/DTD/svg11.dtd">

<svg style="stroke-linejoin:round; stroke:black; stroke-width:0.5pt; text-anchor:middle; fill:none" xmlns="http://www.w3.org/2000/svg" font-family="Helvetica, Arial, FreeSans, Sans, sans, sans-serif" height="400px" width="400px" version="1.1" xmlns:xlink="http://www.w3.org/1999/xlink" viewBox="0 0 100 100">

<g>

<g>

<path stroke-width="0.25pt" d="" />

<path stroke-width="0.25pt" d="M21.0964 33.3125L18.4983 31.8125M76.4781 29.6826L78.8583 27.8563M70.3174 76.4781L72.1437 78.8583M41.362 82.2378L40.5854 85.1355M70.3174 23.5218L72.1437 21.1418M16.9105 45.6437L13.9362 45.2521M76.4782 70.3174L78.8582 72.1437M29.6826 76.4782L27.8563 78.8582M66.6875 78.9036L68.1875 81.5017M23.5219 70.3174L21.1417 72.1437M45.6436 16.9105L45.2522 13.9362M29.6826 23.5219L27.8563 21.1417M82.2378 41.3619L85.1356 40.5855M33.3125 78.9036L31.8125 81.5017M80.8345 62.772L83.6061 63.9202M62.7721 80.8345L63.9201 83.6061M19.1655 62.7721L16.3939 63.9201M83.0895 45.6436L86.0638 45.2522M16.9105 54.3564L13.9362 54.7478M21.0964 66.6875L18.4983 68.1875M82.2378 58.638L85.1355 59.4146M58.6381 82.2378L59.4145 85.1356M19.1655 37.228L16.3939 36.0798M23.5218 29.6826L21.1418 27.8563M16.625 50L13.625 50M58.638 17.7622L59.4146 14.8645M54.3564 83.0895L54.7478 86.0638M41.3619 17.7622L40.5855 14.8644M62.772 19.1655L63.9202 16.3939M66.6875 21.0964L68.1875 18.4983M78.9036 66.6875L81.5017 68.1875M45.6437 83.0895L45.2521 86.0638M54.3563 16.9105L54.7479 13.9362M37.2279 19.1655L36.0799 16.3939M26.4003 26.4003L24.279 24.279M17.7622 41.362L14.8645 40.5854M83.375 50L86.375 50M80.8345 37.2279L83.6061 36.0799M83.0895 54.3563L86.0638 54.7479M73.5997 26.4003L75.721 24.279M33.3125 21.0964L31.8125 18.4983M50 83.375L50 86.375M26.4003 73.5997L24.279 75.721M78.9036 33.3125L81.5017 31.8125M37.228 80.8345L36.0798 83.6061M73.5997 73.5997L75.721 75.721M17.7622 58.6381L14.8644 59.4145" />

<path stroke-width="0.25pt" d="M50 15.125L53.4416 15.2952L57.3012 15.8978L61.3165 17.0121L63.9031 18.0161L66.699 19.3828L70.1521 21.5367L72.9735 23.761L74.9727 25.656L76.9934 27.9179L79.5149 31.4221L81.7356 35.5392L82.7973 38.1424L83.5816 40.5904L84.2909 43.6441L84.7501 47.051L84.8726 49.5882L84.6801 53.6815L84.0987 57.3176L83.2874 60.4026L81.9913 63.886L80.7535 66.4465L78.8293 69.6249L77.4632 71.4951L74.7435 74.5769L72.1378 76.9478L69.4926 78.9189L66.0784 80.9476L62.5202 82.5501L60.2586 83.3321L56.3259 84.2965L52.874 84.7564L48.7318 84.8519L45.7381 84.6136L42.8824 84.141L39.1242 83.1358L35.1432 81.5522L31.3241 79.4529L28.2661 77.2746L25.2261 74.5463L23.4898 72.66L21.5443 70.1627L20.0451 67.8597L18.4087 64.7735L17.2691 62.0398L16.2131 58.6434L15.6909 56.2572L15.2941 53.4306L15.125 50.0122L15.1808 48.0273L15.7856 43.244L16.1793 41.4895L17.2992 37.8787L18.9077 34.2033L20.8763 30.8147L23.3126 27.549L25.5826 25.099L28.0937 22.8637L30.8441 20.8569L33.8518 19.0888L37.0416 17.6218L39.7766 16.6571L42.0439 16.0446L45.046 15.4786L48.257 15.1686" />

</g>

<g>

<path stroke-width="0.25pt" d="" />

<path stroke-width="0.25pt" d="M68 18.8231L69.5 16.225M81.1769 32L83.775 30.5M86 50L89 50M32 81.1769L30.5 83.775M50 86L50 89M32 18.8231L30.5 16.225M18.8231 68L16.225 69.5M68 81.1769L69.5 83.775M14 50L11 50M81.1769 68L83.775 69.5M18.8231 32L16.225 30.5" />

<defs>

<marker refY="3.6" refX="1.5" markerUnits="strokeWidth" viewBox="0 0 10.5 7.2" stroke="none" id="myfinalarrow" markerWidth="10.5" fill="black" orient="auto" markerHeight="7.2">

<path d="M 1.5 3.6 L 0 0 L 10.5 3.6 L 0 7.2 L 1.5 3.6 Z" />

</marker>

</defs>

<path stroke-width="0.25pt" marker-end="url(#myfinalarrow)" d="M50 12.5L54.6518 12.7896L58.1533 13.3971L62.5955 14.6786L65.8312 16.0055L68.1351 17.1767L71.8368 19.5139L74.1764 21.3338L76.7349 23.7037L78.221 25.3054L80.0967 27.6295L82.2643 30.8881L84.0799 34.3535L85.4866 37.8776L86.2085 40.2433L87.0169 43.9998L87.4375 47.8351L87.4806 51.2061L87.1762 54.9171L86.5568 58.3575L85.7806 61.2251L84.4635 64.7822L83.0944 67.6354L81.3279 70.611L79.421 73.252L77.1507 75.8668L74.7538 78.1691L71.5986 80.6553L68.866 82.4087L66.2687 83.7872L61.592 85.6634L58.7685 86.4604L55.7893 87.0504L52.3426 87.4268L47.9843 87.4458L44.1686 87.0438L40.4832 86.2723L36.6375 85.0385L32.7078 83.2751L28.9746 81.0513L25.7997 78.646L23.6666 76.6983L21.1245 73.9261L18.8788 70.9217L16.4695 66.7916L15.0431 63.5745L13.4926 58.5708L12.8851 55.3605L12.522 51.2839L12.5504 48.0558L13.0114 43.8279L13.97 39.6036L15.4125 35.5102L16.6754 32.8035L18.4585 29.7174L21.4907 25.6387L23.0142 23.9613L25.3125 21.7727L28.3141 19.4064L30.4463 18.0015L33.3342 16.4068L36.9203 14.855L39.9357 13.8758L43.7581 13.0231L47.0032 12.6199" />

</g>

<text y="50.0" x="62.5" stroke="none" font-size="5" fill="black">AM</text>

<text y="50.0" x="37.5" stroke="none" font-size="5" fill="black">PM</text>

<text y="8.75" x="50.0" stroke="none" font-size="7" fill="black">Midnight</text>

<text y="95.0" x="50.0" stroke="none" font-size="7" fill="black">Noon</text>

<text y="50.0" x="95.0" stroke="none" font-size="7" fill="black">6</text>

<text y="50.0" x="5.0" stroke="none" font-size="7" fill="black">18</text>

<text y="18.75" x="81.25" stroke="none" font-size="7" fill="black">3</text>

<text y="81.25" x="18.75" stroke="none" font-size="5" fill="black">15</text>

<text y="81.25" x="81.25" stroke="none" font-size="5" fill="black">9</text>

<text y="18.75" x="18.75" stroke="none" font-size="5" fill="black">21</text>

<path stroke="rgb(190,190,190)" stroke-width="0.5" d="M50 50L50 87.5" />

<g>

<path fill="#FFFFFF" fill-opacity="1" stroke="rgb(163,163,163)" stroke-width="0.1" d="M50 50L23.4835 23.4835L24.0683 22.9114L24.6654 22.3521L25.2745 21.806L25.8955 21.2733L26.5279 20.7543L27.1714 20.2492L27.8259 19.7583L28.4909 19.2818L29.1661 18.8199L29.8513 18.3728L30.546 17.9408L31.25 17.524L31.9629 17.1227L32.6844 16.7371L33.4142 16.3673L34.1518 16.0135L34.897 15.6758L35.6494 15.3545L36.4086 15.0497L37.1742 14.7615L37.946 14.4901L38.7235 14.2356L39.5064 13.9981L40.2943 13.7778L41.0868 13.5747L41.8835 13.3889L42.6841 13.2206L43.4882 13.0697L44.2954 12.9364L45.1053 12.8208L45.9175 12.7229L46.7317 12.6427L47.5474 12.5803L48.3643 12.5357L49.1819 12.5089L50 12.5L50.8181 12.5089L51.6357 12.5357L52.4526 12.5803L53.2683 12.6427L54.0825 12.7229L54.8947 12.8208L55.7046 12.9364L56.5118 13.0697L57.3159 13.2206L58.1165 13.3889L58.9132 13.5747L59.7057 13.7778L60.4936 13.9981L61.2765 14.2356L62.054 14.4901L62.8258 14.7615L63.5914 15.0497L64.3506 15.3545L65.103 15.6758L65.8482 16.0135L66.5858 16.3673L67.3156 16.7371L68.0371 17.1227L68.75 17.524L69.454 17.9408L70.1487 18.3728L50 50Z" />

</g>

<g>

<path fill="rgb(190,190,190)" fill-opacity="0.1" stroke="rgb(163,163,163)" stroke-width="0.1" d="M50 50L70.1487 18.3728L70.8339 18.8199L71.5091 19.2818L72.1741 19.7583L72.8286 20.2492L73.4721 20.7543L74.1045 21.2733L74.7255 21.806L75.3346 22.3521L50 50Z" />

</g>

<g>

<path fill="#ADFF2F" fill-opacity="0.7" stroke="rgb(163,163,163)" stroke-width="0.1" d="M50 50L79.7508 27.1714L80.2417 27.8259L80.7182 28.4909L81.1801 29.1661L81.6272 29.8513L82.0592 30.546L82.476 31.25L50 50Z" />

</g>

</g>

</svg>

